<?xml version="1.0" standalone="no"?>
<!DOCTYPE svg PUBLIC "-//W3C//DTD SVG 20010904//EN"
 "http://www.w3.org/TR/2001/REC-SVG-20010904/DTD/svg10.dtd">
<svg version="1.0" xmlns="http://www.w3.org/2000/svg"
 width="1748.000000pt" height="1240.000000pt" viewBox="0 0 1748.000000 1240.000000"
 preserveAspectRatio="xMidYMid meet">

<g transform="translate(0.000000,1240.000000) scale(0.100000,-0.100000)"
fill="#000000" stroke="none">
<path d="M9150 8626 c-5 -13 -13 -27 -19 -30 -6 -4 -15 -24 -20 -44 -16 -56
-80 -147 -175 -247 -47 -49 -86 -93 -86 -98 0 -4 -25 -31 -55 -60 -30 -28 -55
-55 -55 -59 0 -4 -25 -32 -55 -63 -31 -32 -55 -66 -55 -78 0 -11 -3 -17 -7
-14 -7 7 -83 -72 -83 -86 0 -5 -20 -28 -45 -53 -25 -24 -45 -50 -45 -57 0 -8
-11 -22 -24 -30 -12 -9 -31 -32 -40 -51 -10 -22 -22 -34 -28 -30 -7 5 -9 1 -5
-9 3 -9 3 -16 -1 -15 -14 5 -62 -46 -62 -64 0 -11 -4 -17 -9 -14 -8 5 -97 -96
-126 -143 -5 -9 -26 -32 -45 -51 -20 -19 -41 -46 -48 -60 -18 -35 -50 -54 -67
-40 -17 14 -29 66 -26 118 2 36 0 42 -18 42 -46 0 -65 -105 -31 -176 21 -46
22 -114 1 -114 -5 0 -24 -20 -42 -45 -26 -35 -53 -55 -117 -86 -125 -62 -226
-162 -194 -193 4 -4 7 -11 8 -14 0 -4 4 -15 8 -25 5 -10 2 -26 -7 -40 -25 -38
-86 -101 -93 -95 -3 4 -27 -6 -52 -21 -26 -15 -69 -38 -97 -51 -27 -12 -64
-33 -81 -46 -17 -13 -43 -25 -56 -28 -13 -2 -53 -23 -89 -45 -35 -23 -83 -50
-106 -61 -23 -11 -55 -31 -70 -43 -16 -12 -35 -26 -44 -32 -60 -38 -129 -89
-129 -96 0 -5 -8 -9 -18 -9 -11 0 -27 -9 -37 -20 -10 -11 -24 -20 -31 -20 -7
0 -17 -6 -21 -13 -4 -7 -26 -26 -48 -42 -135 -99 -203 -170 -283 -297 -41 -65
-82 -164 -82 -199 0 -14 -5 -30 -12 -37 -7 -7 -11 -48 -11 -114 1 -90 4 -110
27 -155 14 -29 26 -55 26 -59 0 -10 58 -89 90 -121 17 -17 52 -41 78 -53 26
-12 59 -28 74 -36 14 -8 35 -14 46 -14 12 0 24 -5 28 -11 4 -8 30 -9 83 -3 42
4 87 7 101 7 14 0 59 4 100 10 41 5 84 11 95 11 11 1 29 6 40 13 11 6 47 14
80 18 33 4 73 14 90 23 16 9 36 15 42 14 7 -2 25 4 40 11 16 8 34 12 41 10 6
-3 12 -1 12 5 0 5 19 14 43 21 23 7 60 21 82 31 78 36 117 50 126 44 5 -3 9
-1 9 3 0 5 22 17 50 27 27 10 66 26 87 37 20 10 43 19 50 19 28 0 348 158 387
191 6 6 38 26 71 47 33 20 68 42 77 47 8 6 40 27 70 48 30 20 60 37 65 37 6 0
28 16 49 35 21 19 46 37 56 41 10 3 18 10 18 15 0 5 8 13 18 16 24 10 82 67
82 82 0 7 4 9 10 6 21 -13 193 133 210 179 6 18 15 26 25 23 8 -4 46 25 98 76
98 95 133 142 115 151 -7 3 -4 4 7 1 15 -4 25 3 39 28 11 17 28 42 38 54 12
12 17 27 13 34 -5 8 -4 10 3 5 7 -4 12 -1 12 8 0 8 10 23 23 33 13 10 31 32
40 48 48 88 87 171 87 185 0 9 6 22 13 28 8 9 12 54 12 155 -1 125 -3 147 -22
182 -11 22 -30 49 -42 59 -12 11 -21 24 -21 30 0 15 38 38 51 31 5 -4 23 1 41
9 17 9 37 16 45 16 7 0 16 7 19 15 4 10 20 15 49 15 24 0 48 6 54 14 15 18 49
27 57 15 3 -6 10 -6 17 -1 7 5 27 9 45 9 19 0 37 7 45 17 7 9 24 18 39 20 15
1 34 8 42 15 9 8 25 11 36 8 11 -3 20 0 20 5 0 13 -88 3 -106 -13 -7 -6 -17
-9 -21 -6 -4 3 -51 -6 -103 -20 -107 -28 -112 -29 -195 -43 -33 -6 -82 -19
-110 -29 -59 -21 -101 -16 -197 24 -36 15 -116 34 -187 45 -68 10 -128 23
-133 28 -6 6 2 17 20 31 17 11 32 21 35 21 13 0 135 78 166 105 18 16 39 29
45 27 7 -1 36 18 65 43 29 25 56 45 61 45 9 0 123 91 128 102 2 4 10 8 17 8 8
0 22 10 32 23 10 12 26 27 34 32 47 30 109 80 109 87 0 4 6 8 13 8 7 0 37 22
67 50 30 27 69 62 86 77 17 15 80 76 140 134 60 58 138 132 174 164 75 69 165
175 188 222 12 25 13 42 6 70 -8 33 -14 39 -54 50 -49 15 -66 11 -130 -31 -19
-13 -62 -40 -95 -61 -82 -51 -221 -142 -272 -176 -23 -16 -44 -29 -48 -29 -3
0 -44 -29 -91 -65 -47 -36 -89 -65 -95 -65 -13 0 -142 -84 -158 -103 -7 -10
-19 -17 -25 -17 -7 0 -25 -13 -42 -28 -16 -16 -39 -34 -51 -41 -13 -6 -23 -19
-24 -29 0 -11 -2 -12 -6 -4 -4 9 -15 5 -41 -15 -62 -47 -75 -57 -97 -80 -12
-13 -28 -23 -34 -23 -6 0 -16 -12 -22 -26 -5 -15 -12 -24 -15 -21 -10 10 -164
-108 -164 -126 0 -4 5 -5 10 -2 14 9 12 -9 -2 -23 -10 -10 -14 -8 -23 7 -9 18
-14 16 -67 -32 -32 -29 -77 -66 -100 -84 -24 -18 -73 -58 -109 -90 -60 -53
-111 -95 -247 -206 -26 -21 -58 -47 -70 -57 -24 -21 -42 -26 -42 -12 1 15 26
52 67 96 23 26 44 50 45 54 2 4 7 6 11 4 4 -1 10 6 14 15 4 10 21 34 40 53 18
19 33 38 33 43 0 5 11 18 25 29 14 11 22 24 19 30 -4 6 18 34 49 63 31 29 63
67 71 84 9 17 28 38 42 47 14 10 31 29 39 43 8 14 31 45 52 67 21 23 54 61 73
85 57 73 64 80 95 112 17 16 37 40 45 52 20 30 218 252 305 341 112 116 121
127 143 177 30 68 19 85 -61 93 -32 3 -39 0 -47 -20z m891 -214 c-44 -69 -280
-294 -521 -497 -52 -44 -101 -87 -110 -96 -9 -8 -48 -38 -86 -65 -38 -27 -77
-59 -87 -71 -10 -13 -24 -23 -31 -23 -7 0 -23 -11 -36 -25 -13 -14 -29 -25
-36 -25 -7 0 -17 -6 -21 -14 -4 -7 -27 -23 -50 -35 -24 -12 -43 -25 -43 -30 0
-5 -8 -11 -17 -15 -10 -3 -27 -11 -38 -18 -11 -7 -50 -32 -88 -56 -37 -23 -77
-46 -90 -51 -12 -5 -31 -18 -41 -30 -11 -11 -23 -21 -27 -21 -5 0 -43 -16 -85
-36 -42 -19 -103 -40 -137 -45 -33 -6 -68 -14 -79 -20 -10 -6 -25 -6 -33 -1
-13 7 -6 17 32 53 26 24 55 49 64 54 50 29 179 142 179 157 0 11 5 15 15 12 8
-4 27 8 46 30 17 20 37 36 45 36 7 0 17 6 21 14 4 7 13 15 20 17 11 4 61 46
166 141 28 26 57 48 63 48 6 0 16 10 23 23 6 12 31 31 54 42 53 25 92 51 137
92 19 18 42 33 51 33 9 0 23 7 30 16 7 9 40 34 74 56 33 23 67 49 75 59 8 9
42 31 76 48 33 17 73 42 88 56 15 14 31 25 36 25 5 0 29 14 52 30 24 17 61 42
83 57 22 14 43 31 47 38 4 7 21 18 38 25 16 7 30 16 30 20 0 13 69 52 79 45 5
-3 13 1 18 8 4 8 15 16 23 19 27 9 23 -31 -9 -80z m-1776 -1178 c-48 -43 -77
-60 -69 -42 6 16 86 78 99 77 6 0 -8 -16 -30 -35z m778 -50 c48 -16 63 -34 28
-34 -11 0 -23 -5 -26 -10 -4 -6 -11 -8 -16 -4 -5 3 -40 -3 -77 -14 -37 -11
-94 -25 -127 -32 -33 -7 -69 -16 -80 -20 -23 -9 -140 -44 -205 -60 -25 -7 -52
-16 -61 -20 -9 -5 -33 -12 -53 -15 -20 -4 -39 -11 -42 -16 -3 -5 -15 -9 -27
-9 -13 0 -33 -7 -46 -16 -12 -9 -45 -19 -73 -21 -28 -3 -80 -18 -117 -35 -36
-16 -100 -42 -141 -57 -41 -16 -83 -32 -94 -36 -13 -6 -17 -4 -15 4 3 7 8 12
12 12 4 -1 15 6 25 14 57 50 90 74 94 69 3 -3 18 10 32 27 17 20 23 34 17 39
-27 16 127 108 192 114 67 7 113 20 136 37 13 11 28 19 33 19 5 0 28 9 50 20
23 11 52 20 64 20 13 0 26 5 29 11 4 6 12 8 19 6 6 -2 56 4 111 13 118 20 285
17 358 -6z m-863 -14 c0 -5 -5 -10 -11 -10 -5 0 -7 5 -4 10 3 6 8 10 11 10 2
0 4 -4 4 -10z m1047 -77 c39 -43 65 -101 69 -157 2 -28 7 -71 11 -96 3 -25 5
-49 4 -55 -2 -5 -3 -21 -3 -35 0 -14 -11 -45 -23 -70 -13 -25 -28 -65 -35 -90
-12 -43 -27 -68 -82 -132 -16 -18 -28 -40 -28 -49 0 -10 -14 -29 -32 -44 -17
-14 -43 -43 -58 -64 -25 -34 -138 -151 -171 -177 -8 -6 -32 -32 -54 -58 -22
-25 -45 -46 -51 -46 -6 0 -30 -20 -53 -45 -23 -25 -46 -45 -51 -45 -5 0 -15
-8 -22 -17 -7 -10 -21 -22 -29 -28 -9 -5 -62 -45 -117 -87 -56 -42 -121 -87
-144 -100 -24 -13 -47 -29 -51 -36 -4 -6 -26 -21 -48 -32 -21 -11 -39 -24 -39
-29 0 -5 -24 -21 -52 -35 -62 -32 -128 -70 -145 -85 -7 -6 -15 -11 -18 -11
-13 0 -230 -112 -233 -120 -2 -5 -9 -7 -17 -4 -7 3 -16 1 -19 -5 -4 -6 -13 -8
-20 -5 -7 3 -19 -2 -26 -11 -7 -8 -21 -15 -31 -15 -10 0 -35 -9 -54 -20 -20
-11 -44 -22 -53 -23 -20 -4 -75 -29 -82 -37 -7 -9 -84 -30 -108 -30 -11 0 -22
-3 -24 -7 -5 -13 -108 -51 -179 -68 -36 -8 -85 -22 -109 -30 -57 -20 -147 -34
-285 -45 -105 -8 -113 -8 -175 17 -36 14 -76 34 -89 44 -13 11 -29 19 -35 19
-6 1 -32 33 -58 73 -59 89 -82 182 -68 273 16 107 23 128 73 225 38 73 68 115
126 173 98 100 127 126 137 126 5 0 27 16 49 36 22 20 54 43 70 51 17 8 40 25
53 37 13 11 25 19 28 16 2 -3 25 13 50 35 26 22 70 53 98 68 28 16 55 33 60
38 6 5 15 9 20 9 6 0 -26 -36 -71 -80 -44 -44 -84 -80 -88 -80 -11 0 -168
-140 -250 -225 -57 -58 -85 -95 -95 -126 -8 -24 -22 -53 -32 -63 -15 -17 -16
-22 -3 -45 8 -14 23 -36 34 -49 17 -19 24 -21 41 -12 11 6 20 8 20 5 0 -10 61
35 125 92 156 141 303 294 581 608 175 197 219 239 274 261 22 9 40 20 40 25
0 5 5 9 11 9 6 0 52 20 102 44 120 57 165 76 181 76 8 0 19 7 26 15 7 8 28 17
49 21 20 4 65 20 100 35 35 16 71 29 80 29 10 0 21 4 26 9 6 5 41 19 78 30 38
11 83 27 100 35 18 7 57 19 87 26 30 7 64 19 75 26 11 7 29 13 40 12 11 -1 41
8 67 20 26 12 57 22 69 22 12 0 42 7 68 15 57 17 121 35 141 39 62 11 96 20
105 25 16 10 78 29 98 30 10 1 29 -11 44 -26z m90 -225 c-3 -8 -6 -5 -6 6 -1
11 2 17 5 13 3 -3 4 -12 1 -19z m-20 -300 c-3 -8 -6 -5 -6 6 -1 11 2 17 5 13
3 -3 4 -12 1 -19z"/>
<path d="M4885 8575 c-5 -2 -50 -16 -100 -31 -49 -16 -106 -38 -125 -50 -19
-11 -45 -24 -57 -28 -13 -4 -66 -32 -119 -62 -52 -30 -98 -54 -100 -54 -3 0
-14 -8 -24 -18 -11 -10 -41 -29 -67 -42 -27 -13 -64 -35 -83 -50 -19 -15 -48
-34 -65 -42 -57 -29 -80 -43 -116 -70 -20 -16 -40 -28 -45 -28 -9 0 -110 -73
-198 -142 -16 -13 -35 -25 -42 -28 -7 -3 -32 -23 -56 -46 -24 -22 -54 -46 -66
-53 -13 -7 -53 -38 -90 -70 -37 -32 -78 -64 -92 -71 -14 -7 -59 -43 -100 -79
-76 -68 -143 -123 -209 -174 -20 -15 -70 -59 -111 -97 -41 -37 -106 -93 -143
-123 -38 -31 -103 -92 -145 -136 -41 -45 -81 -81 -86 -81 -6 0 -31 -23 -56
-52 -25 -28 -51 -56 -58 -62 -50 -42 -126 -125 -177 -190 -33 -43 -71 -92 -85
-110 -40 -48 -126 -169 -137 -191 -18 -35 -53 -183 -53 -224 0 -22 4 -43 10
-46 5 -3 9 -16 8 -28 -5 -82 66 -175 177 -229 94 -45 246 -57 430 -32 22 3 51
6 65 7 14 1 27 5 30 9 3 4 27 9 54 13 27 3 53 8 58 11 5 3 24 8 41 11 18 2 36
9 42 14 5 5 21 9 37 9 15 0 42 6 60 14 18 8 62 22 98 32 80 22 254 96 279 118
9 9 26 16 35 16 24 0 286 149 293 166 3 8 12 14 21 14 8 0 40 18 69 41 30 22
57 39 59 36 2 -2 -17 -24 -43 -48 -27 -24 -48 -48 -48 -54 0 -5 -10 -14 -22
-20 -13 -5 -23 -13 -23 -16 0 -10 -57 -78 -153 -182 -45 -49 -88 -98 -95 -108
-32 -45 -67 -73 -147 -115 -50 -27 -146 -89 -305 -199 -47 -32 -112 -77 -145
-100 -113 -77 -148 -105 -219 -172 -39 -38 -81 -75 -93 -83 -28 -20 -153 -132
-212 -191 -25 -26 -65 -58 -88 -73 -24 -14 -49 -35 -55 -47 -7 -11 -28 -29
-45 -40 -18 -12 -33 -26 -33 -32 0 -7 -9 -18 -20 -24 -10 -7 -38 -38 -61 -69
-23 -31 -60 -75 -82 -98 -36 -37 -73 -87 -103 -138 -6 -10 -20 -29 -31 -41
-29 -31 -42 -60 -69 -146 -27 -85 -29 -124 -12 -179 12 -39 72 -90 84 -71 3 6
11 8 17 6 18 -6 265 256 260 275 -2 4 6 8 16 8 23 0 241 213 241 235 0 8 4 15
10 15 15 0 204 196 234 243 10 15 24 27 32 27 7 0 19 10 25 22 15 27 35 48 46
48 5 0 16 12 25 28 9 15 38 50 65 78 66 69 103 114 103 125 0 5 7 9 15 9 8 0
15 5 15 10 0 10 66 86 109 124 38 34 145 146 153 161 11 18 77 83 81 79 2 -2
28 30 58 71 30 41 59 75 65 75 6 0 17 7 24 15 7 9 56 37 109 64 53 26 131 67
174 92 43 24 88 49 100 56 12 7 26 18 32 26 11 15 56 28 92 28 13 -1 24 7 28
18 4 12 26 24 73 36 37 10 72 22 79 27 7 5 17 7 24 3 6 -4 24 3 41 15 17 12
38 20 49 17 10 -3 22 -1 25 5 3 5 16 7 27 4 12 -3 27 0 34 6 7 6 13 8 13 5 0
-3 15 -1 33 4 33 10 157 28 234 34 49 3 49 3 -19 -71 -28 -29 -60 -66 -72 -82
-11 -15 -38 -44 -58 -64 -50 -49 -51 -84 -5 -91 36 -6 98 28 158 86 19 18 50
42 69 54 19 12 41 31 48 42 7 12 18 21 25 21 6 0 25 14 42 30 50 51 215 181
300 238 l80 53 3 -31 c2 -18 -4 -90 -12 -160 -24 -197 -22 -213 40 -278 44
-46 142 -54 259 -23 66 18 166 65 173 83 2 4 8 6 13 2 5 -3 21 4 35 15 15 12
32 21 39 21 6 0 20 9 30 20 10 11 24 20 32 20 7 0 13 4 13 8 0 5 16 16 35 25
19 9 35 21 35 27 0 14 -1 14 -67 -19 -72 -36 -156 -75 -163 -77 -3 0 -18 -6
-35 -13 -16 -7 -52 -17 -80 -22 -27 -6 -73 -15 -101 -21 -77 -16 -138 -4 -169
34 -31 36 -31 55 -1 273 21 153 16 180 -36 188 -24 4 -45 -2 -75 -19 -24 -14
-43 -29 -43 -34 0 -6 -9 -10 -19 -10 -10 0 -34 -14 -52 -32 -19 -17 -61 -52
-95 -77 -33 -25 -99 -75 -145 -111 -46 -36 -91 -69 -100 -75 -9 -5 -26 -16
-38 -23 -26 -15 -28 2 -3 20 10 7 28 27 40 45 16 23 32 33 55 35 26 2 31 7 29
23 -2 14 22 44 76 98 43 42 81 75 84 72 3 -3 26 15 52 40 34 32 47 51 44 67
-2 16 -9 22 -22 20 -23 -4 -117 -82 -236 -195 l-85 -81 -85 -1 c-127 -2 -261
-16 -299 -31 -18 -8 -46 -14 -62 -14 -15 0 -31 -5 -35 -11 -3 -6 -15 -8 -26
-6 -11 3 -59 -8 -107 -25 -47 -16 -96 -32 -108 -35 -12 -3 -28 -11 -34 -19 -6
-8 -17 -14 -24 -14 -13 0 -146 -60 -155 -69 -9 -11 -100 -39 -100 -31 0 4 11
15 25 24 14 9 25 22 25 29 0 8 25 38 55 68 30 30 58 62 61 72 3 10 11 16 17
14 7 -2 24 11 38 30 43 54 183 200 467 486 50 51 92 99 92 105 0 7 6 12 13 12
8 0 20 11 27 25 7 14 20 25 27 25 8 0 11 4 8 10 -3 5 1 23 10 39 19 37 19 60
0 85 -14 18 -15 18 -42 0 -15 -10 -33 -17 -39 -16 -6 1 -25 -22 -43 -50 -19
-29 -42 -65 -52 -80 -11 -15 -19 -32 -19 -37 0 -5 -34 -45 -76 -87 -42 -43
-83 -88 -91 -101 -9 -13 -23 -23 -32 -23 -9 0 -27 -16 -40 -36 -14 -19 -42
-45 -62 -57 -21 -12 -40 -30 -43 -39 -2 -10 -14 -18 -25 -18 -12 0 -24 -6 -27
-14 -3 -8 -20 -22 -37 -31 -62 -31 -124 -71 -168 -105 -53 -43 -115 -76 -309
-167 -116 -54 -179 -80 -215 -88 -16 -4 -37 -12 -45 -19 -8 -8 -26 -16 -40
-19 -123 -28 -206 -49 -222 -58 -11 -6 -45 -12 -76 -15 -31 -2 -79 -9 -107
-14 -63 -14 -275 -28 -281 -19 -2 4 -34 10 -71 14 -100 11 -189 79 -213 163
-14 53 -12 173 4 213 23 60 25 63 51 104 14 22 31 51 37 65 7 14 23 33 35 43
12 10 25 27 28 38 4 11 28 43 53 70 26 28 58 67 72 88 14 20 52 61 85 91 33
29 65 61 70 71 6 10 12 17 15 17 9 -1 230 220 230 231 0 5 11 13 25 18 23 7
91 65 198 166 22 20 43 37 46 37 11 0 47 42 54 63 5 13 13 16 26 12 12 -3 23
0 28 8 4 8 45 44 89 80 45 36 90 77 100 92 11 14 27 27 35 28 9 2 31 15 48 30
18 15 39 27 47 27 8 0 14 7 14 15 0 8 4 15 10 15 5 0 30 20 54 45 25 25 52 45
61 45 8 0 15 5 15 10 0 6 6 10 14 10 7 0 20 7 27 16 8 9 31 28 53 42 22 13 49
33 60 43 11 11 25 19 32 19 6 0 19 11 28 25 9 14 23 25 30 25 8 0 27 11 43 24
27 23 200 126 211 126 3 0 15 9 26 19 12 10 37 27 56 38 20 10 42 24 50 31 22
19 297 152 359 173 30 10 60 24 67 29 7 6 39 10 71 8 52 -3 58 -5 61 -26 7
-51 -28 -179 -73 -263 -24 -46 -51 -99 -59 -116 -8 -18 -20 -38 -26 -45 -11
-14 -34 -47 -106 -153 -63 -93 -145 -195 -153 -190 -4 2 -12 -8 -19 -23 -6
-15 -32 -49 -57 -75 -25 -27 -45 -52 -45 -56 0 -4 -13 -23 -30 -41 -16 -18
-30 -38 -30 -42 0 -5 -5 -6 -11 -3 -5 4 -15 -7 -22 -24 -6 -17 -16 -31 -21
-31 -15 0 -286 -273 -286 -287 0 -7 -7 -13 -15 -13 -8 0 -29 -15 -48 -32 -18
-18 -46 -41 -63 -50 -17 -9 -64 -50 -105 -90 -41 -40 -91 -85 -110 -100 -20
-14 -61 -50 -91 -80 -31 -29 -81 -73 -111 -97 -31 -24 -59 -51 -62 -61 -3 -9
-17 -22 -30 -28 -14 -6 -25 -16 -25 -22 0 -16 14 -12 33 10 9 11 23 20 31 20
8 0 16 3 18 8 2 4 26 25 53 47 28 22 65 55 83 72 18 18 39 33 48 33 8 0 18 8
21 18 8 19 28 42 38 42 4 0 27 18 51 39 29 25 62 43 94 51 34 8 54 20 66 38 9
15 49 56 88 92 39 36 103 98 143 138 39 39 75 72 80 72 11 0 153 156 153 169
0 6 9 16 20 23 11 7 20 21 20 30 0 11 8 18 18 18 11 0 23 9 28 19 12 26 140
177 182 215 17 16 32 33 32 38 0 5 14 23 30 42 17 18 51 64 77 102 25 38 61
87 79 110 19 23 34 46 34 51 0 5 9 18 21 29 21 19 108 193 127 254 23 74 32
119 32 153 0 19 5 37 12 39 20 7 -73 100 -94 95 -10 -3 -21 -1 -24 4 -5 9 -29
11 -49 4z m-1615 -2975 c0 -12 -13 -28 -30 -39 -17 -10 -42 -34 -56 -52 -14
-19 -54 -64 -91 -102 -60 -61 -67 -65 -79 -50 -23 30 -17 61 15 77 37 19 151
130 151 147 0 7 3 10 6 6 3 -3 23 3 42 14 45 23 42 23 42 -1z m-273 -256 c11
-24 9 -29 -25 -63 -20 -21 -64 -71 -97 -110 -33 -40 -106 -120 -162 -177 -57
-58 -103 -107 -103 -110 0 -3 -38 -43 -85 -89 -47 -47 -85 -89 -85 -95 0 -5
-4 -10 -10 -10 -5 0 -54 -44 -109 -97 -155 -153 -261 -253 -269 -253 -4 0 -20
-18 -35 -40 -16 -22 -32 -40 -37 -40 -13 0 -24 46 -17 68 19 60 37 95 60 122
15 16 27 33 27 36 0 3 14 23 30 44 17 21 30 42 30 47 0 4 9 14 20 21 11 7 20
17 20 24 0 13 -2 10 117 138 48 53 112 121 141 153 29 31 57 57 63 57 5 0 9
11 9 25 0 20 5 25 24 25 16 0 47 23 94 68 98 93 178 163 214 186 17 11 45 33
62 48 17 15 35 27 41 25 5 -2 16 2 23 10 21 21 46 15 59 -13z"/>
<path d="M14850 8563 c-14 -3 -32 -10 -40 -17 -8 -7 -31 -13 -50 -15 -53 -4
-241 -76 -370 -140 -218 -109 -530 -295 -565 -336 -5 -7 -24 -19 -41 -28 -17
-9 -55 -36 -85 -60 -30 -24 -81 -63 -114 -86 -111 -77 -315 -243 -382 -309
-27 -26 -59 -54 -73 -63 -37 -24 -342 -310 -568 -533 -117 -116 -221 -209
-265 -238 -156 -102 -304 -205 -358 -250 -31 -27 -60 -48 -64 -48 -11 0 -275
-229 -328 -285 -80 -83 -116 -136 -199 -294 -15 -30 -28 -62 -28 -73 0 -21
-53 -104 -70 -110 -11 -3 -138 -116 -181 -160 -15 -16 -34 -28 -43 -28 -8 0
-20 -8 -25 -17 -6 -10 -11 -13 -11 -7 0 6 7 17 15 24 9 7 49 63 91 124 77 115
184 253 282 366 32 35 69 80 84 100 15 19 56 71 93 115 36 44 119 145 183 225
64 80 139 168 167 196 27 28 59 62 70 76 29 38 138 159 230 258 44 47 98 107
120 135 22 27 47 57 55 66 42 46 134 150 172 193 24 27 66 73 93 102 28 29 62
67 77 86 48 58 208 241 252 288 23 25 61 68 85 95 67 76 173 185 182 185 5 0
35 27 69 60 53 52 60 64 60 99 0 37 -1 39 -37 44 -35 4 -41 1 -88 -49 -28 -30
-55 -54 -61 -54 -10 0 -158 -141 -213 -203 -23 -27 -30 -42 -23 -49 11 -11
-33 -69 -126 -168 -23 -25 -42 -48 -42 -51 0 -3 -12 -19 -27 -36 -16 -16 -44
-49 -63 -73 -19 -24 -50 -57 -67 -74 -18 -17 -33 -34 -33 -37 0 -4 -17 -24
-37 -46 -21 -22 -48 -53 -61 -69 -31 -38 -116 -135 -170 -193 -23 -25 -75 -84
-115 -131 -40 -46 -111 -125 -158 -175 -47 -49 -114 -126 -149 -170 -36 -44
-87 -105 -116 -135 -28 -30 -62 -74 -77 -97 -14 -23 -35 -47 -45 -55 -22 -15
-142 -159 -142 -170 0 -4 -10 -18 -22 -31 -91 -96 -200 -223 -243 -282 -16
-22 -37 -49 -47 -60 -44 -47 -98 -117 -98 -126 0 -6 -6 -16 -12 -24 -7 -7 -29
-34 -48 -60 -19 -25 -52 -66 -73 -91 -32 -40 -86 -113 -137 -188 -8 -13 -34
-45 -57 -73 -24 -28 -43 -55 -43 -60 0 -6 -9 -18 -21 -29 -12 -10 -32 -40 -45
-66 l-24 -46 29 -31 c27 -28 71 -43 71 -23 0 5 17 25 38 44 136 131 176 168
183 168 4 0 10 9 14 19 3 10 21 29 40 42 19 13 35 30 35 37 0 6 4 12 9 12 5 0
37 27 70 60 34 33 65 60 71 60 5 0 10 6 10 13 0 11 49 47 64 47 3 0 9 -18 12
-41 4 -22 13 -43 20 -46 8 -3 14 -16 14 -29 0 -14 19 -43 53 -77 106 -109 232
-111 502 -6 44 17 100 39 125 48 59 23 364 190 461 252 41 27 80 49 86 49 6 0
16 7 23 15 7 8 24 21 39 28 69 37 158 90 177 108 11 10 24 19 28 19 4 0 26 13
49 28 58 40 126 84 147 97 50 29 127 84 139 99 8 9 29 23 46 30 17 8 47 28 67
45 20 17 40 31 45 31 5 0 23 10 40 23 16 12 43 31 58 42 15 11 53 40 84 65 31
25 70 54 87 65 54 35 195 148 253 204 31 29 76 70 101 90 67 54 570 558 570
572 0 6 33 46 73 88 40 42 82 88 93 102 10 15 51 69 89 120 68 91 81 110 157
229 50 80 108 185 108 198 0 6 11 28 25 48 14 20 30 55 36 78 6 23 17 55 24
72 7 17 16 65 20 106 7 69 5 81 -18 130 -20 43 -34 57 -69 75 -45 21 -151 35
-198 26z m85 -88 c76 -4 80 -6 101 -47 14 -28 15 -43 4 -121 -12 -89 -30 -140
-97 -272 -44 -87 -148 -261 -177 -296 -11 -14 -30 -38 -41 -54 -11 -15 -41
-55 -67 -89 -26 -34 -63 -84 -82 -113 -20 -28 -47 -60 -60 -71 -14 -11 -42
-39 -61 -63 -20 -24 -48 -58 -63 -76 -51 -59 -269 -278 -387 -388 -65 -60
-140 -131 -167 -157 -27 -26 -83 -73 -124 -104 -41 -31 -80 -64 -87 -75 -6
-10 -16 -19 -20 -19 -10 0 -87 -57 -145 -106 -20 -17 -47 -34 -59 -38 -13 -4
-23 -11 -23 -16 0 -10 -175 -140 -188 -140 -5 0 -19 -11 -32 -25 -13 -14 -29
-25 -35 -25 -7 0 -20 -9 -30 -20 -10 -11 -24 -20 -32 -20 -7 0 -16 -7 -20 -16
-3 -8 -12 -13 -19 -10 -8 3 -14 2 -14 -2 0 -13 -117 -93 -225 -154 -55 -31
-118 -69 -140 -85 -45 -33 -208 -133 -289 -178 -30 -16 -72 -40 -94 -52 -22
-13 -61 -36 -85 -53 -25 -16 -49 -30 -53 -30 -5 0 -40 -16 -79 -35 -38 -19
-101 -46 -140 -60 -38 -14 -83 -32 -100 -40 -34 -15 -137 -39 -175 -40 -39 0
-136 38 -169 67 -28 25 -39 60 -46 140 -1 10 -4 20 -7 23 -3 4 -2 18 3 33 5
15 11 43 14 62 4 27 17 45 49 73 25 20 48 37 52 37 10 0 80 73 93 98 6 12 21
22 31 22 11 0 20 4 20 9 0 4 21 31 48 58 26 27 62 67 80 89 18 21 46 48 62 59
17 11 30 25 30 30 0 6 18 29 40 50 22 21 40 35 40 30 0 -12 140 127 140 140 1
19 220 235 239 235 6 0 17 12 26 28 9 15 39 41 67 57 27 17 60 39 71 51 22 20
81 62 141 98 17 11 60 38 96 61 36 22 100 59 143 80 42 22 77 43 77 47 0 5 11
8 24 8 14 0 38 11 54 25 16 13 32 22 36 18 3 -4 16 3 29 14 12 11 42 26 67 33
25 7 54 18 65 24 11 5 25 11 32 12 38 7 83 27 83 39 0 8 7 11 21 8 11 -3 30
-1 42 5 12 6 58 24 102 42 44 17 94 38 112 46 17 8 46 17 65 20 62 12 138 54
138 76 0 12 -5 18 -12 15 -7 -2 -37 -13 -65 -23 -29 -10 -53 -22 -53 -25 0 -3
-11 -4 -24 -2 -13 3 -27 0 -30 -6 -4 -6 -15 -11 -25 -11 -22 0 -121 -31 -171
-53 -19 -9 -73 -28 -120 -42 -47 -15 -100 -35 -118 -46 -18 -10 -39 -19 -45
-19 -7 0 -29 -9 -50 -19 -20 -10 -47 -21 -60 -25 -13 -3 -40 -17 -60 -30 -20
-14 -37 -24 -37 -21 0 2 -43 -16 -96 -41 -52 -24 -97 -44 -100 -44 -14 0 1 31
29 61 53 56 217 209 224 209 3 0 36 28 73 63 104 98 138 128 255 226 173 145
196 164 265 216 119 90 135 101 172 123 20 13 38 26 40 30 4 9 245 169 313
207 28 16 61 37 74 47 13 10 31 18 41 18 9 0 27 11 40 25 12 13 25 23 29 22 7
-2 102 34 116 44 13 9 223 92 299 117 33 11 65 18 71 16 7 -3 18 2 25 10 7 9
16 13 21 10 5 -3 38 -7 74 -9z m-2185 -1450 c-7 -9 -15 -13 -18 -10 -3 2 1 11
8 20 7 9 15 13 18 10 3 -2 -1 -11 -8 -20z m-770 -630 c-13 -14 -26 -23 -28
-20 -7 7 29 45 41 45 6 0 0 -11 -13 -25z m-40 -35 c0 -11 -320 -332 -361 -361
-37 -26 -37 -13 1 40 37 51 67 81 80 81 6 0 10 3 10 8 0 12 72 85 110 112 19
13 44 33 55 44 25 25 97 86 102 86 1 0 3 -4 3 -10z m-407 -405 c-3 -9 -8 -14
-10 -11 -3 3 -2 9 2 15 9 16 15 13 8 -4z"/>
<path d="M14043 7495 c-12 -8 -28 -12 -36 -9 -8 3 -28 -1 -44 -9 -15 -8 -46
-18 -68 -22 -36 -6 -38 -8 -22 -20 16 -11 24 -10 53 7 19 11 54 22 77 24 52 4
97 20 97 34 0 15 -32 12 -57 -5z"/>
<path d="M9893 7333 c-7 -2 -13 -9 -13 -14 0 -11 51 -5 76 9 17 10 15 11 -16
11 -19 0 -41 -3 -47 -6z"/>
<path d="M15555 6640 c-3 -5 -16 -10 -29 -10 -12 0 -27 -5 -34 -12 -7 -7 -12
-8 -12 -2 0 5 -3 5 -8 -1 -4 -5 -45 -30 -92 -54 -77 -39 -154 -87 -397 -248
-45 -30 -87 -61 -94 -69 -6 -8 -16 -14 -21 -14 -5 0 -31 -18 -57 -40 -26 -22
-52 -40 -58 -40 -6 0 -16 -7 -23 -15 -7 -8 -20 -15 -30 -15 -9 0 -25 -9 -35
-20 -59 -65 -17 21 88 179 70 107 79 137 48 165 -31 28 -70 4 -71 -44 0 -14
-27 -70 -60 -125 -58 -99 -128 -234 -157 -308 -14 -35 -14 -39 2 -57 25 -27
31 -26 84 21 73 65 83 73 146 120 33 24 101 76 150 114 87 69 241 175 252 175
3 0 25 16 49 35 23 19 46 35 50 35 12 0 208 133 217 148 4 6 12 12 17 12 6 0
19 9 30 20 11 11 31 20 45 20 18 0 25 5 25 20 0 21 -15 27 -25 10z"/>
<path d="M14360 6595 c-235 -45 -603 -266 -676 -407 -9 -18 -25 -44 -35 -58
-11 -14 -22 -51 -25 -85 l-6 -61 41 -37 c39 -35 44 -37 111 -37 38 0 93 5 122
10 75 15 198 52 198 60 0 4 18 12 41 19 22 7 42 18 45 26 3 8 18 16 33 20 14
3 62 26 105 50 43 25 85 45 92 45 8 0 36 15 63 34 26 19 68 44 91 56 121 62
61 63 -65 2 -44 -22 -129 -60 -190 -86 -60 -26 -117 -52 -125 -57 -8 -5 -22
-12 -30 -15 -8 -3 -37 -17 -65 -29 -104 -48 -281 -84 -339 -69 -31 7 -44 45
-28 77 6 12 14 36 17 54 3 17 13 37 21 44 8 6 14 17 14 25 0 7 14 29 30 48 30
34 33 35 103 34 72 -1 183 17 202 34 5 4 21 8 36 8 15 0 34 6 41 13 21 22 55
37 81 37 21 0 135 54 147 70 3 4 20 15 39 25 38 19 71 54 97 102 15 26 16 34
5 47 -16 19 -93 19 -191 1z m72 -74 c-6 -3 -27 -20 -48 -36 -43 -35 -189 -97
-304 -131 -25 -7 -64 -18 -87 -25 -23 -7 -46 -10 -49 -6 -12 12 69 76 111 88
22 6 47 16 55 23 47 39 197 93 305 109 22 3 33 -12 17 -22z"/>
<path d="M9793 6519 c-12 -4 -25 -14 -30 -21 -4 -7 -19 -21 -33 -30 -14 -9
-45 -35 -70 -58 -25 -23 -67 -64 -95 -89 -27 -26 -63 -64 -78 -84 -16 -21 -38
-48 -50 -61 -12 -13 -47 -52 -77 -86 -30 -34 -74 -82 -97 -106 -54 -55 -58
-89 -10 -97 38 -6 96 25 156 84 23 21 45 39 49 39 5 0 28 18 51 40 23 22 45
40 49 40 4 0 21 13 37 30 55 54 218 183 300 237 98 65 94 72 70 -154 -20 -183
-17 -199 41 -257 35 -35 68 -46 138 -46 55 0 185 30 216 50 14 9 37 22 53 30
15 7 27 17 27 22 0 5 5 6 10 3 6 -3 22 3 36 14 15 12 32 21 39 21 6 0 20 9 30
20 10 11 24 20 31 20 7 0 14 4 16 9 2 4 21 17 42 28 65 33 26 34 -44 1 -135
-64 -155 -73 -160 -74 -3 0 -18 -6 -33 -12 -69 -29 -228 -56 -281 -48 -58 9
-96 53 -96 111 0 35 4 64 34 241 16 95 4 136 -45 146 -27 5 -43 1 -76 -18 -24
-14 -43 -29 -43 -34 0 -6 -8 -10 -19 -10 -10 0 -41 -21 -67 -46 -27 -25 -67
-58 -89 -72 -22 -15 -79 -58 -128 -96 -48 -38 -96 -74 -106 -80 -10 -6 -28
-17 -40 -24 -29 -17 -26 -9 7 27 15 16 36 40 48 53 46 51 218 212 230 214 18
3 74 56 90 85 17 33 1 51 -33 38z"/>
<path d="M3100 4890 c-19 -19 -20 -33 -20 -230 0 -197 1 -211 20 -230 19 -19
33 -20 230 -20 255 0 250 -2 250 115 l0 75 5160 0 5160 0 0 -75 c0 -117 -5
-115 250 -115 197 0 211 1 230 20 19 19 20 33 20 230 0 197 -1 211 -20 230
-19 19 -33 20 -230 20 -255 0 -250 2 -250 -115 l0 -75 -5160 0 -5160 0 0 75
c0 117 5 115 -250 115 -197 0 -211 -1 -230 -20z m350 -235 l0 -125 -120 0
-120 0 0 125 0 125 120 0 120 0 0 -125z m10820 0 l0 -125 -120 0 -120 0 0 125
0 125 120 0 120 0 0 -125z"/>
</g>
</svg>
